<svg width="56" height="56" viewBox="0 0 56 56" fill="none" xmlns="http://www.w3.org/2000/svg">
<path d="M11.88 0.5H44.12C45.9867 0.5 47.5 2.01328 47.5 3.88V52.12C47.5 53.9867 45.9867 55.5 44.12 55.5H11.88C10.0133 55.5 8.5 53.9867 8.5 52.12V3.88C8.5 2.01328 10.0133 0.5 11.88 0.5Z" stroke="#0B3541" stroke-miterlimit="10" stroke-linecap="round"/>
<path d="M8.5 8H47.5" stroke="#0B3541" stroke-miterlimit="10" stroke-linecap="round"/>
<path d="M12.52 5.27C13.0944 5.27 13.56 4.80438 13.56 4.23C13.56 3.65563 13.0944 3.19 12.52 3.19C11.9456 3.19 11.48 3.65563 11.48 4.23C11.48 4.80438 11.9456 5.27 12.52 5.27Z" fill="#0B3541"/>
<path d="M16.59 5.27C17.1644 5.27 17.63 4.80438 17.63 4.23C17.63 3.65563 17.1644 3.19 16.59 3.19C16.0157 3.19 15.55 3.65563 15.55 4.23C15.55 4.80438 16.0157 5.27 16.59 5.27Z" fill="#0B3541"/>
<path d="M22.1099 28.45L16.5699 31C16.4497 31.0531 16.3412 31.1294 16.2505 31.2245C16.1598 31.3196 16.0887 31.4317 16.0413 31.5543C15.994 31.6769 15.9712 31.8076 15.9744 31.939C15.9776 32.0704 16.0067 32.1999 16.0599 32.32C16.1644 32.5449 16.3451 32.7256 16.5699 32.83L22.0999 35.24" stroke="#0B3541" stroke-miterlimit="10" stroke-linecap="round"/>
<path d="M33.8999 28.45L39.4199 31C39.541 31.0522 39.6506 31.1278 39.7423 31.2225C39.8341 31.3172 39.9062 31.4291 39.9545 31.5518C40.0029 31.6745 40.0264 31.8055 40.0239 31.9374C40.0214 32.0692 39.9929 32.1993 39.9399 32.32C39.8368 32.5493 39.6512 32.7314 39.4199 32.83L33.8999 35.22" stroke="#0B3541" stroke-miterlimit="10" stroke-linecap="round"/>
<path d="M30.71 25.95L25.29 37.71" stroke="#0B3541" stroke-miterlimit="10" stroke-linecap="round"/>
<path d="M16.8198 26.85V18.46C16.8198 18.0728 16.9736 17.7014 17.2474 17.4276C17.5213 17.1538 17.8926 17 18.2798 17H37.7198C38.107 17 38.4784 17.1538 38.7522 17.4276C39.026 17.7014 39.1798 18.0728 39.1798 18.46V26.85" stroke="#0B3541" stroke-miterlimit="10" stroke-linecap="round"/>
<path d="M39.1798 36.89V45.54C39.1798 45.7317 39.1421 45.9216 39.0687 46.0987C38.9953 46.2759 38.8878 46.4368 38.7522 46.5724C38.6166 46.708 38.4557 46.8155 38.2785 46.8889C38.1014 46.9622 37.9116 47 37.7198 47H18.2798C18.0881 47 17.8982 46.9622 17.7211 46.8889C17.544 46.8155 17.383 46.708 17.2474 46.5724C17.1119 46.4368 17.0043 46.2759 16.931 46.0987C16.8576 45.9216 16.8198 45.7317 16.8198 45.54V36.89" stroke="#0B3541" stroke-miterlimit="10" stroke-linecap="round"/>
</svg>
